<mxfile host="Electron" modified="2023-10-10T16:26:39.142Z" agent="Mozilla/5.0 (Windows NT 10.0; Win64; x64) AppleWebKit/537.36 (KHTML, like Gecko) draw.io/22.0.2 Chrome/114.0.5735.289 Electron/25.8.4 Safari/537.36" etag="GPgn2ErM3sjUTby97Lof" version="22.0.2" type="device">
  <diagram name="Page-1" id="4RQ78uOHNz9-AvgiA-zj">
    <mxGraphModel dx="4144" dy="4270" grid="1" gridSize="10" guides="1" tooltips="1" connect="1" arrows="1" fold="1" page="1" pageScale="1" pageWidth="2336" pageHeight="1654" math="0" shadow="0">
      <root>
        <mxCell id="0" />
        <mxCell id="1" parent="0" />
        <mxCell id="q-VrSPOYVZLqt5bqGyS9-1" value="KHACH HANG ĐÃ ĐĂNG KÝ" style="shape=umlActor;verticalLabelPosition=bottom;verticalAlign=top;html=1;outlineConnect=0;" parent="1" vertex="1">
          <mxGeometry x="240" y="-620" width="30" height="60" as="geometry" />
        </mxCell>
        <mxCell id="ky-Em5fr_ZoJciQnDSSW-12" style="edgeStyle=orthogonalEdgeStyle;rounded=0;orthogonalLoop=1;jettySize=auto;html=1;" edge="1" parent="1" source="q-VrSPOYVZLqt5bqGyS9-6" target="ky-Em5fr_ZoJciQnDSSW-9">
          <mxGeometry relative="1" as="geometry" />
        </mxCell>
        <mxCell id="q-VrSPOYVZLqt5bqGyS9-6" value="NHÂN VIÊN GIAO DỊCH" style="shape=umlActor;verticalLabelPosition=bottom;verticalAlign=top;html=1;outlineConnect=0;" parent="1" vertex="1">
          <mxGeometry x="280" y="-40" width="30" height="60" as="geometry" />
        </mxCell>
        <mxCell id="q-VrSPOYVZLqt5bqGyS9-7" value="DAI DIEN CHO VAY" style="shape=umlActor;verticalLabelPosition=bottom;verticalAlign=top;html=1;outlineConnect=0;" parent="1" vertex="1">
          <mxGeometry x="160" y="640" width="30" height="60" as="geometry" />
        </mxCell>
        <mxCell id="q-VrSPOYVZLqt5bqGyS9-17" value="KHACH HANG CHƯA ĐĂNG KÝ" style="shape=umlActor;verticalLabelPosition=bottom;verticalAlign=top;html=1;outlineConnect=0;" parent="1" vertex="1">
          <mxGeometry x="240" y="-910" width="30" height="60" as="geometry" />
        </mxCell>
        <mxCell id="ky-Em5fr_ZoJciQnDSSW-9" value="Nhân viên" style="shape=umlActor;verticalLabelPosition=bottom;verticalAlign=top;html=1;outlineConnect=0;" vertex="1" parent="1">
          <mxGeometry x="80" y="-42" width="30" height="65" as="geometry" />
        </mxCell>
        <mxCell id="ky-Em5fr_ZoJciQnDSSW-16" value="Quản lý khách hàng" style="ellipse;whiteSpace=wrap;html=1;" vertex="1" parent="1">
          <mxGeometry x="440" y="-109.5" width="140" height="50" as="geometry" />
        </mxCell>
        <mxCell id="ky-Em5fr_ZoJciQnDSSW-20" value="&amp;lt;&amp;lt;include&amp;gt;&amp;gt;" style="html=1;verticalAlign=bottom;labelBackgroundColor=none;endArrow=open;endFill=0;dashed=1;rounded=0;entryX=0;entryY=0.5;entryDx=0;entryDy=0;" edge="1" parent="1" target="ky-Em5fr_ZoJciQnDSSW-21">
          <mxGeometry width="160" relative="1" as="geometry">
            <mxPoint x="580" y="-89.5" as="sourcePoint" />
            <mxPoint x="680" y="-89.5" as="targetPoint" />
          </mxGeometry>
        </mxCell>
        <mxCell id="ky-Em5fr_ZoJciQnDSSW-21" value="Đăng ký khách hàng mới" style="ellipse;whiteSpace=wrap;html=1;" vertex="1" parent="1">
          <mxGeometry x="970" y="-210" width="120" height="50" as="geometry" />
        </mxCell>
        <mxCell id="ky-Em5fr_ZoJciQnDSSW-22" value="Cập nhật thông tin khách hàng" style="ellipse;whiteSpace=wrap;html=1;" vertex="1" parent="1">
          <mxGeometry x="970" y="-140" width="120" height="50" as="geometry" />
        </mxCell>
        <mxCell id="ky-Em5fr_ZoJciQnDSSW-23" value="&amp;lt;&amp;lt;include&amp;gt;&amp;gt;" style="html=1;verticalAlign=bottom;labelBackgroundColor=none;endArrow=open;endFill=0;dashed=1;rounded=0;entryX=0;entryY=0.5;entryDx=0;entryDy=0;exitX=1;exitY=0.5;exitDx=0;exitDy=0;" edge="1" parent="1" source="ky-Em5fr_ZoJciQnDSSW-16" target="ky-Em5fr_ZoJciQnDSSW-22">
          <mxGeometry width="160" relative="1" as="geometry">
            <mxPoint x="580" y="-39.5" as="sourcePoint" />
            <mxPoint x="680" y="-39.5" as="targetPoint" />
          </mxGeometry>
        </mxCell>
        <mxCell id="ky-Em5fr_ZoJciQnDSSW-24" value="Xem thông tin khách hàng" style="ellipse;whiteSpace=wrap;html=1;" vertex="1" parent="1">
          <mxGeometry x="970" y="-80" width="120" height="50" as="geometry" />
        </mxCell>
        <mxCell id="ky-Em5fr_ZoJciQnDSSW-25" value="Xóa khách hàng" style="ellipse;whiteSpace=wrap;html=1;" vertex="1" parent="1">
          <mxGeometry x="970" y="-10" width="120" height="50" as="geometry" />
        </mxCell>
        <mxCell id="ky-Em5fr_ZoJciQnDSSW-26" value="" style="endArrow=none;html=1;rounded=0;entryX=0;entryY=0.5;entryDx=0;entryDy=0;exitX=1;exitY=0.3333333333333333;exitDx=0;exitDy=0;exitPerimeter=0;" edge="1" parent="1" source="q-VrSPOYVZLqt5bqGyS9-6" target="ky-Em5fr_ZoJciQnDSSW-16">
          <mxGeometry width="50" height="50" relative="1" as="geometry">
            <mxPoint x="360" y="180" as="sourcePoint" />
            <mxPoint x="410" y="130" as="targetPoint" />
          </mxGeometry>
        </mxCell>
        <mxCell id="ky-Em5fr_ZoJciQnDSSW-27" value="Quản lý hợp đồng vay" style="ellipse;whiteSpace=wrap;html=1;" vertex="1" parent="1">
          <mxGeometry x="440" y="60" width="140" height="50" as="geometry" />
        </mxCell>
        <mxCell id="ky-Em5fr_ZoJciQnDSSW-28" value="&amp;lt;&amp;lt;include&amp;gt;&amp;gt;" style="html=1;verticalAlign=bottom;labelBackgroundColor=none;endArrow=open;endFill=0;dashed=1;rounded=0;entryX=0;entryY=0.5;entryDx=0;entryDy=0;exitX=1;exitY=0.5;exitDx=0;exitDy=0;" edge="1" parent="1" target="ky-Em5fr_ZoJciQnDSSW-24">
          <mxGeometry width="160" relative="1" as="geometry">
            <mxPoint x="580" y="-79.5" as="sourcePoint" />
            <mxPoint x="980" y="-39.5" as="targetPoint" />
          </mxGeometry>
        </mxCell>
        <mxCell id="ky-Em5fr_ZoJciQnDSSW-29" value="&amp;lt;&amp;lt;include&amp;gt;&amp;gt;" style="html=1;verticalAlign=bottom;labelBackgroundColor=none;endArrow=open;endFill=0;dashed=1;rounded=0;entryX=0;entryY=0.5;entryDx=0;entryDy=0;exitX=1;exitY=0.5;exitDx=0;exitDy=0;" edge="1" parent="1" target="ky-Em5fr_ZoJciQnDSSW-25">
          <mxGeometry width="160" relative="1" as="geometry">
            <mxPoint x="580" y="-79.5" as="sourcePoint" />
            <mxPoint x="980" y="-39.5" as="targetPoint" />
          </mxGeometry>
        </mxCell>
        <mxCell id="ky-Em5fr_ZoJciQnDSSW-30" value="&amp;lt;&amp;lt;include&amp;gt;&amp;gt;" style="html=1;verticalAlign=bottom;labelBackgroundColor=none;endArrow=open;endFill=0;dashed=1;rounded=0;entryX=0;entryY=0.5;entryDx=0;entryDy=0;exitX=1;exitY=0.5;exitDx=0;exitDy=0;" edge="1" parent="1" target="ky-Em5fr_ZoJciQnDSSW-31" source="ky-Em5fr_ZoJciQnDSSW-27">
          <mxGeometry width="160" relative="1" as="geometry">
            <mxPoint x="600" y="245.5" as="sourcePoint" />
            <mxPoint x="700" y="245.5" as="targetPoint" />
          </mxGeometry>
        </mxCell>
        <mxCell id="ky-Em5fr_ZoJciQnDSSW-31" value="Tạo hợp đồng vay mới" style="ellipse;whiteSpace=wrap;html=1;" vertex="1" parent="1">
          <mxGeometry x="980" y="50" width="120" height="50" as="geometry" />
        </mxCell>
        <mxCell id="ky-Em5fr_ZoJciQnDSSW-32" value="Cập nhật thông tin hợp đồng vay" style="ellipse;whiteSpace=wrap;html=1;" vertex="1" parent="1">
          <mxGeometry x="1180" y="110" width="120" height="50" as="geometry" />
        </mxCell>
        <mxCell id="ky-Em5fr_ZoJciQnDSSW-33" value="&amp;lt;&amp;lt;include&amp;gt;&amp;gt;" style="html=1;verticalAlign=bottom;labelBackgroundColor=none;endArrow=open;endFill=0;dashed=1;rounded=0;entryX=0;entryY=0.5;entryDx=0;entryDy=0;exitX=1;exitY=0.5;exitDx=0;exitDy=0;" edge="1" parent="1" target="ky-Em5fr_ZoJciQnDSSW-32" source="ky-Em5fr_ZoJciQnDSSW-34">
          <mxGeometry width="160" relative="1" as="geometry">
            <mxPoint x="900" y="130" as="sourcePoint" />
            <mxPoint x="700" y="295.5" as="targetPoint" />
          </mxGeometry>
        </mxCell>
        <mxCell id="ky-Em5fr_ZoJciQnDSSW-34" value="Xem danh sách hợp đồng vay" style="ellipse;whiteSpace=wrap;html=1;" vertex="1" parent="1">
          <mxGeometry x="980" y="180" width="120" height="50" as="geometry" />
        </mxCell>
        <mxCell id="ky-Em5fr_ZoJciQnDSSW-35" value="Xóa hợp đồng vay" style="ellipse;whiteSpace=wrap;html=1;" vertex="1" parent="1">
          <mxGeometry x="1180" y="200" width="120" height="50" as="geometry" />
        </mxCell>
        <mxCell id="ky-Em5fr_ZoJciQnDSSW-36" value="&amp;lt;&amp;lt;include&amp;gt;&amp;gt;" style="html=1;verticalAlign=bottom;labelBackgroundColor=none;endArrow=open;endFill=0;dashed=1;rounded=0;entryX=0;entryY=0.5;entryDx=0;entryDy=0;exitX=1;exitY=0.5;exitDx=0;exitDy=0;" edge="1" parent="1" target="ky-Em5fr_ZoJciQnDSSW-34" source="ky-Em5fr_ZoJciQnDSSW-27">
          <mxGeometry width="160" relative="1" as="geometry">
            <mxPoint x="600" y="255.5" as="sourcePoint" />
            <mxPoint x="1000" y="295.5" as="targetPoint" />
          </mxGeometry>
        </mxCell>
        <mxCell id="ky-Em5fr_ZoJciQnDSSW-37" value="&amp;lt;&amp;lt;include&amp;gt;&amp;gt;" style="html=1;verticalAlign=bottom;labelBackgroundColor=none;endArrow=open;endFill=0;dashed=1;rounded=0;entryX=0;entryY=0.5;entryDx=0;entryDy=0;exitX=1;exitY=0.5;exitDx=0;exitDy=0;" edge="1" parent="1" target="ky-Em5fr_ZoJciQnDSSW-35" source="ky-Em5fr_ZoJciQnDSSW-34">
          <mxGeometry width="160" relative="1" as="geometry">
            <mxPoint x="890" y="260" as="sourcePoint" />
            <mxPoint x="1000" y="295.5" as="targetPoint" />
          </mxGeometry>
        </mxCell>
        <mxCell id="ky-Em5fr_ZoJciQnDSSW-38" value="Xem chi tiết hợp đồng vay" style="ellipse;whiteSpace=wrap;html=1;" vertex="1" parent="1">
          <mxGeometry x="1180" y="300" width="120" height="50" as="geometry" />
        </mxCell>
        <mxCell id="ky-Em5fr_ZoJciQnDSSW-39" value="&amp;lt;&amp;lt;include&amp;gt;&amp;gt;" style="html=1;verticalAlign=bottom;labelBackgroundColor=none;endArrow=open;endFill=0;dashed=1;rounded=0;entryX=0;entryY=0.5;entryDx=0;entryDy=0;exitX=1;exitY=0.5;exitDx=0;exitDy=0;" edge="1" parent="1" target="ky-Em5fr_ZoJciQnDSSW-38">
          <mxGeometry width="160" relative="1" as="geometry">
            <mxPoint x="1100" y="210" as="sourcePoint" />
            <mxPoint x="1180" y="230" as="targetPoint" />
          </mxGeometry>
        </mxCell>
        <mxCell id="ky-Em5fr_ZoJciQnDSSW-40" value="" style="endArrow=none;html=1;rounded=0;entryX=0;entryY=0.5;entryDx=0;entryDy=0;exitX=1;exitY=0.3333333333333333;exitDx=0;exitDy=0;exitPerimeter=0;" edge="1" parent="1" source="q-VrSPOYVZLqt5bqGyS9-6">
          <mxGeometry width="50" height="50" relative="1" as="geometry">
            <mxPoint x="310" y="146" as="sourcePoint" />
            <mxPoint x="440" y="80" as="targetPoint" />
          </mxGeometry>
        </mxCell>
        <mxCell id="ky-Em5fr_ZoJciQnDSSW-44" value="ĐĂNG KÝ KHÁCH HÀNG MỚI" style="ellipse;whiteSpace=wrap;html=1;" vertex="1" parent="1">
          <mxGeometry x="520" y="-900" width="120" height="80" as="geometry" />
        </mxCell>
        <mxCell id="ky-Em5fr_ZoJciQnDSSW-45" value="" style="endArrow=none;html=1;rounded=0;entryX=0;entryY=0.5;entryDx=0;entryDy=0;" edge="1" parent="1" target="ky-Em5fr_ZoJciQnDSSW-44">
          <mxGeometry width="50" height="50" relative="1" as="geometry">
            <mxPoint x="260" y="-880" as="sourcePoint" />
            <mxPoint x="310" y="-930" as="targetPoint" />
          </mxGeometry>
        </mxCell>
        <mxCell id="ky-Em5fr_ZoJciQnDSSW-46" value="" style="endArrow=none;html=1;rounded=0;" edge="1" parent="1">
          <mxGeometry width="50" height="50" relative="1" as="geometry">
            <mxPoint x="260" y="-580" as="sourcePoint" />
            <mxPoint x="500" y="-640" as="targetPoint" />
          </mxGeometry>
        </mxCell>
        <mxCell id="ky-Em5fr_ZoJciQnDSSW-47" value="QUẢN LÝ THÔNG TIN CÁ NHÂN" style="ellipse;whiteSpace=wrap;html=1;" vertex="1" parent="1">
          <mxGeometry x="500" y="-690" width="120" height="80" as="geometry" />
        </mxCell>
        <mxCell id="ky-Em5fr_ZoJciQnDSSW-48" value="Cập nhật thông tin cá nhân" style="ellipse;whiteSpace=wrap;html=1;" vertex="1" parent="1">
          <mxGeometry x="1140" y="-780" width="120" height="50" as="geometry" />
        </mxCell>
        <mxCell id="ky-Em5fr_ZoJciQnDSSW-49" value="&amp;lt;&amp;lt;include&amp;gt;&amp;gt;" style="html=1;verticalAlign=bottom;labelBackgroundColor=none;endArrow=open;endFill=0;dashed=1;rounded=0;entryX=0;entryY=0.5;entryDx=0;entryDy=0;exitX=1;exitY=0.5;exitDx=0;exitDy=0;" edge="1" parent="1" target="ky-Em5fr_ZoJciQnDSSW-48" source="ky-Em5fr_ZoJciQnDSSW-50">
          <mxGeometry width="160" relative="1" as="geometry">
            <mxPoint x="519.9999999999957" y="-595" as="sourcePoint" />
            <mxPoint x="610" y="-520.5" as="targetPoint" />
          </mxGeometry>
        </mxCell>
        <mxCell id="ky-Em5fr_ZoJciQnDSSW-50" value="Xem thông tin cá nhân" style="ellipse;whiteSpace=wrap;html=1;" vertex="1" parent="1">
          <mxGeometry x="890" y="-760" width="120" height="50" as="geometry" />
        </mxCell>
        <mxCell id="ky-Em5fr_ZoJciQnDSSW-51" value="&amp;lt;&amp;lt;include&amp;gt;&amp;gt;" style="html=1;verticalAlign=bottom;labelBackgroundColor=none;endArrow=open;endFill=0;dashed=1;rounded=0;entryX=0;entryY=0.5;entryDx=0;entryDy=0;" edge="1" parent="1" target="ky-Em5fr_ZoJciQnDSSW-50">
          <mxGeometry width="160" relative="1" as="geometry">
            <mxPoint x="620" y="-650" as="sourcePoint" />
            <mxPoint x="910" y="-644.5" as="targetPoint" />
          </mxGeometry>
        </mxCell>
        <mxCell id="ky-Em5fr_ZoJciQnDSSW-52" value="KHACH HANG" style="shape=umlActor;verticalLabelPosition=bottom;verticalAlign=top;html=1;outlineConnect=0;" vertex="1" parent="1">
          <mxGeometry x="80" y="-740" width="30" height="60" as="geometry" />
        </mxCell>
        <mxCell id="ky-Em5fr_ZoJciQnDSSW-55" value="" style="endArrow=classic;html=1;rounded=0;exitX=0.5;exitY=0.5;exitDx=0;exitDy=0;exitPerimeter=0;entryX=1;entryY=0.3333333333333333;entryDx=0;entryDy=0;entryPerimeter=0;" edge="1" parent="1" source="q-VrSPOYVZLqt5bqGyS9-17" target="ky-Em5fr_ZoJciQnDSSW-52">
          <mxGeometry width="50" height="50" relative="1" as="geometry">
            <mxPoint x="200" y="-750" as="sourcePoint" />
            <mxPoint x="150" y="-730" as="targetPoint" />
          </mxGeometry>
        </mxCell>
        <mxCell id="ky-Em5fr_ZoJciQnDSSW-56" value="" style="endArrow=classic;html=1;rounded=0;exitX=0.5;exitY=0.5;exitDx=0;exitDy=0;exitPerimeter=0;" edge="1" parent="1" source="q-VrSPOYVZLqt5bqGyS9-1" target="ky-Em5fr_ZoJciQnDSSW-52">
          <mxGeometry width="50" height="50" relative="1" as="geometry">
            <mxPoint x="200" y="-610" as="sourcePoint" />
            <mxPoint x="250" y="-660" as="targetPoint" />
          </mxGeometry>
        </mxCell>
        <mxCell id="ky-Em5fr_ZoJciQnDSSW-57" value="Thêm thông tin cá nhân" style="ellipse;whiteSpace=wrap;html=1;" vertex="1" parent="1">
          <mxGeometry x="890" y="-690" width="120" height="50" as="geometry" />
        </mxCell>
        <mxCell id="ky-Em5fr_ZoJciQnDSSW-58" value="&amp;lt;&amp;lt;include&amp;gt;&amp;gt;" style="html=1;verticalAlign=bottom;labelBackgroundColor=none;endArrow=open;endFill=0;dashed=1;rounded=0;entryX=0;entryY=0.5;entryDx=0;entryDy=0;exitX=1;exitY=0.5;exitDx=0;exitDy=0;" edge="1" parent="1" source="ky-Em5fr_ZoJciQnDSSW-47" target="ky-Em5fr_ZoJciQnDSSW-57">
          <mxGeometry width="160" relative="1" as="geometry">
            <mxPoint x="630" y="-640" as="sourcePoint" />
            <mxPoint x="900" y="-725" as="targetPoint" />
          </mxGeometry>
        </mxCell>
        <mxCell id="ky-Em5fr_ZoJciQnDSSW-59" value="QUẢN LÝ NHÂN VIÊN" style="ellipse;whiteSpace=wrap;html=1;" vertex="1" parent="1">
          <mxGeometry x="450" y="260" width="140" height="50" as="geometry" />
        </mxCell>
        <mxCell id="ky-Em5fr_ZoJciQnDSSW-60" value="NHÂN VIÊN QUẢN LÝ NHÂN SỰ" style="shape=umlActor;verticalLabelPosition=bottom;verticalAlign=top;html=1;outlineConnect=0;" vertex="1" parent="1">
          <mxGeometry x="280" y="230" width="30" height="60" as="geometry" />
        </mxCell>
        <mxCell id="ky-Em5fr_ZoJciQnDSSW-61" value="" style="endArrow=none;html=1;rounded=0;entryX=0;entryY=0.5;entryDx=0;entryDy=0;exitX=0.5;exitY=0.5;exitDx=0;exitDy=0;exitPerimeter=0;" edge="1" parent="1" source="ky-Em5fr_ZoJciQnDSSW-60" target="ky-Em5fr_ZoJciQnDSSW-59">
          <mxGeometry width="50" height="50" relative="1" as="geometry">
            <mxPoint x="320" y="290" as="sourcePoint" />
            <mxPoint x="370" y="240" as="targetPoint" />
          </mxGeometry>
        </mxCell>
        <mxCell id="ky-Em5fr_ZoJciQnDSSW-62" value="&amp;lt;&amp;lt;include&amp;gt;&amp;gt;" style="html=1;verticalAlign=bottom;labelBackgroundColor=none;endArrow=open;endFill=0;dashed=1;rounded=0;exitX=1;exitY=0.5;exitDx=0;exitDy=0;" edge="1" parent="1" source="ky-Em5fr_ZoJciQnDSSW-59">
          <mxGeometry width="160" relative="1" as="geometry">
            <mxPoint x="600" y="290" as="sourcePoint" />
            <mxPoint x="760" y="290" as="targetPoint" />
          </mxGeometry>
        </mxCell>
        <mxCell id="ky-Em5fr_ZoJciQnDSSW-63" value="Thêm nhân viên mới" style="ellipse;whiteSpace=wrap;html=1;" vertex="1" parent="1">
          <mxGeometry x="760" y="270" width="120" height="50" as="geometry" />
        </mxCell>
        <mxCell id="ky-Em5fr_ZoJciQnDSSW-64" value="&amp;lt;&amp;lt;include&amp;gt;&amp;gt;" style="html=1;verticalAlign=bottom;labelBackgroundColor=none;endArrow=open;endFill=0;dashed=1;rounded=0;exitX=1;exitY=0.5;exitDx=0;exitDy=0;" edge="1" parent="1">
          <mxGeometry width="160" relative="1" as="geometry">
            <mxPoint x="1130" y="430" as="sourcePoint" />
            <mxPoint x="1300" y="435" as="targetPoint" />
          </mxGeometry>
        </mxCell>
        <mxCell id="ky-Em5fr_ZoJciQnDSSW-65" value="Cập nhật thông tin nhân viên" style="ellipse;whiteSpace=wrap;html=1;" vertex="1" parent="1">
          <mxGeometry x="1300" y="415" width="120" height="50" as="geometry" />
        </mxCell>
        <mxCell id="ky-Em5fr_ZoJciQnDSSW-66" value="&amp;lt;&amp;lt;include&amp;gt;&amp;gt;" style="html=1;verticalAlign=bottom;labelBackgroundColor=none;endArrow=open;endFill=0;dashed=1;rounded=0;" edge="1" parent="1">
          <mxGeometry width="160" relative="1" as="geometry">
            <mxPoint x="590" y="290" as="sourcePoint" />
            <mxPoint x="760" y="370" as="targetPoint" />
          </mxGeometry>
        </mxCell>
        <mxCell id="ky-Em5fr_ZoJciQnDSSW-67" value="Xem danh sách nhân viên" style="ellipse;whiteSpace=wrap;html=1;" vertex="1" parent="1">
          <mxGeometry x="760" y="350" width="120" height="50" as="geometry" />
        </mxCell>
        <mxCell id="ky-Em5fr_ZoJciQnDSSW-68" value="&amp;lt;&amp;lt;include&amp;gt;&amp;gt;" style="html=1;verticalAlign=bottom;labelBackgroundColor=none;endArrow=open;endFill=0;dashed=1;rounded=0;exitX=1;exitY=0.5;exitDx=0;exitDy=0;" edge="1" parent="1">
          <mxGeometry width="160" relative="1" as="geometry">
            <mxPoint x="869.9999999999995" y="380" as="sourcePoint" />
            <mxPoint x="1010" y="425" as="targetPoint" />
          </mxGeometry>
        </mxCell>
        <mxCell id="ky-Em5fr_ZoJciQnDSSW-69" value="Xem chi tiết nhân viên" style="ellipse;whiteSpace=wrap;html=1;" vertex="1" parent="1">
          <mxGeometry x="1010" y="405" width="120" height="50" as="geometry" />
        </mxCell>
        <mxCell id="ky-Em5fr_ZoJciQnDSSW-70" value="&amp;lt;&amp;lt;include&amp;gt;&amp;gt;" style="html=1;verticalAlign=bottom;labelBackgroundColor=none;endArrow=open;endFill=0;dashed=1;rounded=0;" edge="1" parent="1">
          <mxGeometry width="160" relative="1" as="geometry">
            <mxPoint x="870" y="380" as="sourcePoint" />
            <mxPoint x="1020" y="540" as="targetPoint" />
          </mxGeometry>
        </mxCell>
        <mxCell id="ky-Em5fr_ZoJciQnDSSW-71" value="Xóa nhân viên" style="ellipse;whiteSpace=wrap;html=1;" vertex="1" parent="1">
          <mxGeometry x="1020" y="520" width="120" height="50" as="geometry" />
        </mxCell>
        <mxCell id="ky-Em5fr_ZoJciQnDSSW-72" value="QUẢN LÝ THÔNG TIN BÊN CHO VAY" style="ellipse;whiteSpace=wrap;html=1;" vertex="1" parent="1">
          <mxGeometry x="380" y="630" width="120" height="80" as="geometry" />
        </mxCell>
        <mxCell id="ky-Em5fr_ZoJciQnDSSW-74" value="" style="endArrow=none;html=1;rounded=0;entryX=0;entryY=0.5;entryDx=0;entryDy=0;" edge="1" parent="1" target="ky-Em5fr_ZoJciQnDSSW-72">
          <mxGeometry width="50" height="50" relative="1" as="geometry">
            <mxPoint x="180" y="680" as="sourcePoint" />
            <mxPoint x="230" y="630" as="targetPoint" />
          </mxGeometry>
        </mxCell>
        <mxCell id="ky-Em5fr_ZoJciQnDSSW-75" value="&amp;lt;&amp;lt;include&amp;gt;&amp;gt;" style="html=1;verticalAlign=bottom;labelBackgroundColor=none;endArrow=open;endFill=0;dashed=1;rounded=0;exitX=1;exitY=0.5;exitDx=0;exitDy=0;" edge="1" parent="1" source="ky-Em5fr_ZoJciQnDSSW-78">
          <mxGeometry width="160" relative="1" as="geometry">
            <mxPoint x="810" y="675" as="sourcePoint" />
            <mxPoint x="980" y="680" as="targetPoint" />
          </mxGeometry>
        </mxCell>
        <mxCell id="ky-Em5fr_ZoJciQnDSSW-76" value="Cập nhật thông tin" style="ellipse;whiteSpace=wrap;html=1;" vertex="1" parent="1">
          <mxGeometry x="980" y="660" width="120" height="50" as="geometry" />
        </mxCell>
        <mxCell id="ky-Em5fr_ZoJciQnDSSW-77" value="&amp;lt;&amp;lt;include&amp;gt;&amp;gt;" style="html=1;verticalAlign=bottom;labelBackgroundColor=none;endArrow=open;endFill=0;dashed=1;rounded=0;exitX=1;exitY=0.5;exitDx=0;exitDy=0;" edge="1" parent="1">
          <mxGeometry width="160" relative="1" as="geometry">
            <mxPoint x="500" y="665" as="sourcePoint" />
            <mxPoint x="670" y="670" as="targetPoint" />
          </mxGeometry>
        </mxCell>
        <mxCell id="ky-Em5fr_ZoJciQnDSSW-78" value="Xem thông tin" style="ellipse;whiteSpace=wrap;html=1;" vertex="1" parent="1">
          <mxGeometry x="670" y="650" width="120" height="50" as="geometry" />
        </mxCell>
        <mxCell id="ky-Em5fr_ZoJciQnDSSW-79" value="&amp;lt;&amp;lt;include&amp;gt;&amp;gt;" style="html=1;verticalAlign=bottom;labelBackgroundColor=none;endArrow=open;endFill=0;dashed=1;rounded=0;exitX=1;exitY=0.5;exitDx=0;exitDy=0;" edge="1" parent="1" source="ky-Em5fr_ZoJciQnDSSW-72">
          <mxGeometry width="160" relative="1" as="geometry">
            <mxPoint x="490" y="785" as="sourcePoint" />
            <mxPoint x="660" y="790" as="targetPoint" />
          </mxGeometry>
        </mxCell>
        <mxCell id="ky-Em5fr_ZoJciQnDSSW-80" value="Thêm thông tin" style="ellipse;whiteSpace=wrap;html=1;" vertex="1" parent="1">
          <mxGeometry x="660" y="770" width="120" height="50" as="geometry" />
        </mxCell>
        <mxCell id="ky-Em5fr_ZoJciQnDSSW-81" value="VAY TIỀN" style="ellipse;whiteSpace=wrap;html=1;" vertex="1" parent="1">
          <mxGeometry x="500" y="-530" width="120" height="60" as="geometry" />
        </mxCell>
        <mxCell id="ky-Em5fr_ZoJciQnDSSW-82" value="" style="endArrow=none;html=1;rounded=0;exitX=0.4;exitY=0.73;exitDx=0;exitDy=0;exitPerimeter=0;" edge="1" parent="1" source="q-VrSPOYVZLqt5bqGyS9-1">
          <mxGeometry width="50" height="50" relative="1" as="geometry">
            <mxPoint x="260" y="-440" as="sourcePoint" />
            <mxPoint x="500" y="-500" as="targetPoint" />
          </mxGeometry>
        </mxCell>
        <mxCell id="ky-Em5fr_ZoJciQnDSSW-83" value="Nhập số tiền" style="ellipse;whiteSpace=wrap;html=1;" vertex="1" parent="1">
          <mxGeometry x="890" y="-550" width="120" height="50" as="geometry" />
        </mxCell>
        <mxCell id="ky-Em5fr_ZoJciQnDSSW-84" value="&amp;lt;&amp;lt;include&amp;gt;&amp;gt;" style="html=1;verticalAlign=bottom;labelBackgroundColor=none;endArrow=open;endFill=0;dashed=1;rounded=0;entryX=0;entryY=0.5;entryDx=0;entryDy=0;exitX=1;exitY=0.5;exitDx=0;exitDy=0;" edge="1" parent="1" target="ky-Em5fr_ZoJciQnDSSW-83">
          <mxGeometry width="160" relative="1" as="geometry">
            <mxPoint x="620" y="-510" as="sourcePoint" />
            <mxPoint x="900" y="-585" as="targetPoint" />
          </mxGeometry>
        </mxCell>
        <mxCell id="ky-Em5fr_ZoJciQnDSSW-87" value="Chọn gói vay" style="ellipse;whiteSpace=wrap;html=1;" vertex="1" parent="1">
          <mxGeometry x="1220" y="-450" width="120" height="50" as="geometry" />
        </mxCell>
        <mxCell id="ky-Em5fr_ZoJciQnDSSW-88" value="&amp;lt;&amp;lt;include&amp;gt;&amp;gt;" style="html=1;verticalAlign=bottom;labelBackgroundColor=none;endArrow=open;endFill=0;dashed=1;rounded=0;entryX=0;entryY=0.5;entryDx=0;entryDy=0;" edge="1" parent="1" target="ky-Em5fr_ZoJciQnDSSW-89">
          <mxGeometry width="160" relative="1" as="geometry">
            <mxPoint x="620" y="-500" as="sourcePoint" />
            <mxPoint x="910" y="-405" as="targetPoint" />
          </mxGeometry>
        </mxCell>
        <mxCell id="ky-Em5fr_ZoJciQnDSSW-89" value="Xem danh sách gói vay" style="ellipse;whiteSpace=wrap;html=1;" vertex="1" parent="1">
          <mxGeometry x="780" y="-450" width="120" height="50" as="geometry" />
        </mxCell>
        <mxCell id="ky-Em5fr_ZoJciQnDSSW-90" value="Xem chi tiết gói vay" style="ellipse;whiteSpace=wrap;html=1;" vertex="1" parent="1">
          <mxGeometry x="1000" y="-450" width="120" height="50" as="geometry" />
        </mxCell>
        <mxCell id="ky-Em5fr_ZoJciQnDSSW-92" value="&amp;lt;&amp;lt;include&amp;gt;&amp;gt;" style="html=1;verticalAlign=bottom;labelBackgroundColor=none;endArrow=open;endFill=0;dashed=1;rounded=0;entryX=0;entryY=0.5;entryDx=0;entryDy=0;exitX=1;exitY=0.5;exitDx=0;exitDy=0;" edge="1" parent="1" source="ky-Em5fr_ZoJciQnDSSW-89" target="ky-Em5fr_ZoJciQnDSSW-90">
          <mxGeometry width="160" relative="1" as="geometry">
            <mxPoint x="630" y="-490" as="sourcePoint" />
            <mxPoint x="790" y="-415" as="targetPoint" />
          </mxGeometry>
        </mxCell>
        <mxCell id="ky-Em5fr_ZoJciQnDSSW-93" value="&amp;lt;&amp;lt;include&amp;gt;&amp;gt;" style="html=1;verticalAlign=bottom;labelBackgroundColor=none;endArrow=open;endFill=0;dashed=1;rounded=0;entryX=0;entryY=0.5;entryDx=0;entryDy=0;" edge="1" parent="1">
          <mxGeometry width="160" relative="1" as="geometry">
            <mxPoint x="1120" y="-430" as="sourcePoint" />
            <mxPoint x="1220" y="-430" as="targetPoint" />
          </mxGeometry>
        </mxCell>
        <mxCell id="ky-Em5fr_ZoJciQnDSSW-94" value="XEM TRƯỚC THÔNG TIN HỢP ĐỒNG VAY" style="ellipse;whiteSpace=wrap;html=1;" vertex="1" parent="1">
          <mxGeometry x="470" y="-350" width="170" height="70" as="geometry" />
        </mxCell>
        <mxCell id="ky-Em5fr_ZoJciQnDSSW-95" value="&amp;lt;&amp;lt;include&amp;gt;&amp;gt;" style="html=1;verticalAlign=bottom;labelBackgroundColor=none;endArrow=open;endFill=0;dashed=1;rounded=0;exitX=1.02;exitY=0.649;exitDx=0;exitDy=0;exitPerimeter=0;" edge="1" parent="1" source="ky-Em5fr_ZoJciQnDSSW-94">
          <mxGeometry width="160" relative="1" as="geometry">
            <mxPoint x="630" y="-320" as="sourcePoint" />
            <mxPoint x="800" y="-305" as="targetPoint" />
          </mxGeometry>
        </mxCell>
        <mxCell id="ky-Em5fr_ZoJciQnDSSW-96" value="" style="endArrow=none;html=1;rounded=0;entryX=0;entryY=0.5;entryDx=0;entryDy=0;" edge="1" parent="1" source="q-VrSPOYVZLqt5bqGyS9-1" target="ky-Em5fr_ZoJciQnDSSW-94">
          <mxGeometry width="50" height="50" relative="1" as="geometry">
            <mxPoint x="340" y="-330" as="sourcePoint" />
            <mxPoint x="390" y="-380" as="targetPoint" />
          </mxGeometry>
        </mxCell>
        <mxCell id="ky-Em5fr_ZoJciQnDSSW-97" value="GỬI YÊU CẦU VAY" style="ellipse;whiteSpace=wrap;html=1;" vertex="1" parent="1">
          <mxGeometry x="800" y="-340" width="120" height="80" as="geometry" />
        </mxCell>
      </root>
    </mxGraphModel>
  </diagram>
</mxfile>
